<?xml version="1.0" encoding="UTF-8" standalone="no"?>
<!-- Generator: Adobe Illustrator 21.0.1, SVG Export Plug-In . SVG Version: 6.00 Build 0)  -->

<svg
   version="1.0"
   id="Layer_1"
   x="0px"
   y="0px"
   viewBox="0 0 444.81128 493.91988"
   enable-background="new 0 0 945.815 397.02"
   xml:space="preserve"
   sodipodi:docname="logo-hipsters-pontotech.svg"
   width="444.81128"
   height="493.91986"
   inkscape:version="1.1 (c68e22c387, 2021-05-23)"
   xmlns:inkscape="http://www.inkscape.org/namespaces/inkscape"
   xmlns:sodipodi="http://sodipodi.sourceforge.net/DTD/sodipodi-0.dtd"
   xmlns:xlink="http://www.w3.org/1999/xlink"
   xmlns="http://www.w3.org/2000/svg"
   xmlns:svg="http://www.w3.org/2000/svg"><defs
   id="defs93">
	
	
	
	
	
	
	
	
	
	
	
	
	
	
	
	
	
	
	
	
	
	
	
	
	
	
	
	
	
	
	
	
	
	
	
	
	
	
	
</defs><sodipodi:namedview
   id="namedview91"
   pagecolor="#ffffff"
   bordercolor="#666666"
   borderopacity="1.0"
   inkscape:pageshadow="2"
   inkscape:pageopacity="0.0"
   inkscape:pagecheckerboard="true"
   showgrid="false"
   inkscape:zoom="1.0887268"
   inkscape:cx="396.33449"
   inkscape:cy="192.88585"
   inkscape:window-width="1920"
   inkscape:window-height="1011"
   inkscape:window-x="0"
   inkscape:window-y="32"
   inkscape:window-maximized="1"
   inkscape:current-layer="Layer_1" />
<rect
   style="fill:#ffffff;stroke-width:46.2203"
   id="rect1136"
   width="444.81128"
   height="493.91986"
   x="0"
   y="0" /><g
   id="g1249"
   transform="translate(44.780132,61.747437)"><path
     fill="#f0c782"
     d="m 355.251,192.8 c 0,98.1 -79.526,177.625 -177.625,177.625 C 79.527,370.425 0,290.9 0,192.8 0,94.7 79.526,15.174 177.625,15.174 c 98.099,0 177.626,79.526 177.626,177.626"
     id="path2" /><path
     fill="#3f3f3f"
     d="m 263.054,51.123 c -0.466,0 -0.935,-0.162 -1.314,-0.493 -5.722,-4.992 -11.896,-9.487 -18.351,-13.36 -0.613,-0.342 -1.029,-0.996 -1.029,-1.747 0,-1.104 0.89,-2 1.995,-2 h 0.564 l 0.475,0.285 c 6.676,4.002 13.061,8.647 18.977,13.808 0.832,0.727 0.918,1.99 0.192,2.822 -0.397,0.453 -0.952,0.685 -1.509,0.685 z"
     id="path30" /><path
     fill="#eb837c"
     d="m 298.655,163.813 c 0,8.69 -2.95,16.8 -8.08,23.22 -5.13,6.41 -12.35,11.15 -20.82,13.07 l -1.24,0.18 -0.62,0.04 v 0.94 c 0,1.68 -0.46,3.31 -2.15,3.31 h -8.12 c 1.07,-14.439 1.81,-30.12 1.81,-45.979 -0.35,-8.54 0.26,-21.32 1.2,-34.93 h 5.11 c 1.69,0 2.15,1.11 2.15,2.8 v 0.84 l 0.63,0.04 1.03,0.18 c 16.949,3.839 29.1,18.909 29.1,36.289 z"
     id="path32" /><path
     fill="#eb837c"
     d="m 99.075,204.573 h -9.57 c -1.69,0 -2.14,-1.63 -2.14,-3.31 v -0.94 l -0.63,-0.04 -1.24,-0.18 c -8.47,-1.92 -15.69,-6.66 -20.82,-13.07 -5.13,-6.419 -8.08,-14.53 -8.08,-23.22 0,-17.38 12.15,-32.45 29.1,-36.29 l 1.03,-0.18 0.64,-0.04 v -0.84 c 0,-1.69 0.45,-2.8 2.14,-2.8 h 5.91 l 0.33,0.4 c 1.14,12.78 1.97,25.53 1.57,35.32 -0.001,15.62 0.72,31.02 1.76,45.19 z"
     id="path34" /><path
     fill="#69c4a0"
     d="m 268.745,49.134 c -5.928,0.733 -12.027,0.267 -15.701,-3.408 -8.99,-8.99 -28.887,-40.456 -63.336,-40.456 -34.449,0 -56.57,14.318 -69.889,34.712 -8.98,13.751 -28.1,22.651 -28.1,37.043 0,15.983 6.592,58.387 5.595,82.631 0,55.599 9.126,108.341 9.126,113.335 0,9.823 49.709,52.193 72.166,52.193 22.457,0 71.704,-39.374 71.704,-52.193 0,-4.994 9.126,-58.557 9.126,-114.156 -0.72,-17.499 2.617,-52.674 4.472,-76.648 l 1.627,-2.166 c 4.686,-5.993 7.738,-11.874 11.541,-18.849 3.226,-5.915 -1.645,-12.865 -8.331,-12.038"
     id="path36" /><path
     fill="#f6f7f2"
     d="m 253.041,145.878 c 0,14.345 -1.758,63.526 -3.846,87.34 -0.769,0.06 -141.087,0.02 -142.196,-0.13 -2.068,-22.676 -3.796,-72.883 -3.796,-87.108 0,-13.086 3.536,-37.531 4.935,-46.671 0.31,-2.027 2.108,-3.511 4.166,-3.382 1.778,0.11 4.125,0.237 6.882,0.397 l 0.19,0.004 c 1.358,0.08 2.807,0.167 4.335,0.256 3.976,0.23 8.481,0.488 13.166,0.758 1.378,0.08 2.777,0.159 4.175,0.239 0.37,0.02 0.739,0.04 1.109,0.06 l 0.23,0.01 c 15.233,0.849 30.916,1.658 35.731,1.648 1.658,0 4.615,-0.089 8.391,-0.259 16.023,-0.669 46.919,-2.508 57.428,-3.137 2.058,-0.13 3.856,1.329 4.165,3.356 0.29,1.858 0.659,4.355 1.069,7.262 1.628,11.347 3.866,28.938 3.866,39.357"
     id="path38" /><g
     id="g48"
     transform="translate(-10.82,-13.297)">
		<defs
   id="defs41">
			<path
   id="SVGID_1_"
   d="m 255.014,111.189 c -0.084,0 -0.169,0.003 -0.253,0.008 -10.508,0.629 -41.405,2.467 -57.428,3.137 -3.776,0.17 -6.733,0.26 -8.391,0.26 -0.031,0 -0.061,0 -0.092,0 -4.921,0 -20.503,-0.804 -35.639,-1.648 l -0.23,-0.01 c -0.37,-0.02 -0.739,-0.04 -1.109,-0.06 17.864,16.601 37.568,28.122 59.323,28.122 15.238,0 31.485,-5.657 48.8,-19.182 -0.41,-2.907 -0.779,-5.404 -1.069,-7.262 -0.297,-1.945 -1.962,-3.365 -3.912,-3.365" />
		</defs>
		<clipPath
   id="SVGID_2_">
			<use
   xlink:href="#SVGID_1_"
   overflow="visible"
   id="use43"
   x="0"
   y="0"
   width="100%"
   height="100%" />
		</clipPath>
		<rect
   x="151.873"
   y="111.189"
   clip-path="url(#SVGID_2_)"
   fill="#ebece8"
   width="108.123"
   height="29.809"
   id="rect46" />
	</g><path
     fill="#69c4a0"
     d="m 130.474,86.662 c 34.745,34.745 76.667,51.943 127.362,1.249 z"
     id="path50" /><path
     fill="#62b592"
     d="m 172.86,312.499 c -0.277,0 -0.555,0 -0.834,-0.002 -15.248,-0.069 -28.727,-2.123 -28.861,-2.144 -0.819,-0.126 -1.38,-0.893 -1.254,-1.711 0.126,-0.818 0.897,-1.376 1.711,-1.254 0.526,0.08 52.738,7.928 67.906,-7.24 10.252,-10.253 0.793,-36.705 0.697,-36.971 -0.283,-0.778 0.119,-1.64 0.897,-1.922 0.778,-0.288 1.639,0.117 1.922,0.896 0.422,1.159 10.194,28.528 -1.395,40.117 -6.79,6.791 -20.511,10.231 -40.789,10.231"
     id="path52" /><path
     fill="#62b592"
     d="m 156.695,297.818 c -15.89,0 -31.019,-2.033 -32.19,-2.193 -0.821,-0.113 -1.395,-0.87 -1.282,-1.69 0.112,-0.822 0.87,-1.385 1.69,-1.282 0.133,0.019 13.488,1.833 28.157,2.12 19.093,0.36 31.703,-1.943 36.46,-6.7 11.267,-11.268 -3.497,-30.26 -3.647,-30.45 -0.513,-0.65 -0.403,-1.594 0.247,-2.107 0.65,-0.513 1.593,-0.402 2.107,0.246 0.683,0.862 16.571,21.278 3.416,34.433 -6.009,6.005 -20.786,7.623 -34.958,7.623"
     id="path54" /><path
     fill="#62b592"
     d="m 152.157,281.968 c -4.835,0 -10.631,-0.326 -17.421,-0.976 -13.719,-1.312 -26.503,-3.542 -26.63,-3.564 -0.816,-0.144 -1.361,-0.921 -1.218,-1.736 0.144,-0.816 0.924,-1.36 1.737,-1.219 13.938,2.445 51.633,7.566 58.571,1.982 0.761,-0.611 1.123,-1.343 1.142,-2.302 0.085,-4.367 -6.698,-11.247 -9.319,-13.529 -0.624,-0.544 -0.69,-1.492 -0.147,-2.116 0.543,-0.624 1.49,-0.691 2.116,-0.147 1.073,0.933 10.475,9.304 10.35,15.85 -0.035,1.836 -0.817,3.421 -2.261,4.583 -2.637,2.118 -8.221,3.174 -16.92,3.174"
     id="path56" /><path
     fill="#62b592"
     d="m 244.311,285.428 c -0.604,0 -1.174,-0.367 -1.402,-0.966 -0.772,-2.029 -4.848,-12.692 -9.198,-23.431 -0.311,-0.768 0.059,-1.643 0.827,-1.954 0.765,-0.309 1.642,0.06 1.953,0.827 4.362,10.767 8.447,21.456 9.222,23.489 0.295,0.774 -0.094,1.641 -0.868,1.936 -0.176,0.068 -0.357,0.099 -0.534,0.099"
     id="path58" /><path
     fill="#62b592"
     d="m 266.484,67.821 c -6.714,0 -15.727,-2.195 -26.127,-6.503 -28.301,-11.723 -56.951,-34.739 -56.951,-56.047 0,-0.829 0.671,-1.5 1.5,-1.5 0.829,0 1.5,0.671 1.5,1.5 0,19.78 28.388,42.212 55.099,53.276 15.963,6.612 28.998,8.166 33.208,3.957 0.586,-0.586 1.535,-0.586 2.121,0 0.586,0.585 0.586,1.536 0,2.121 -2.141,2.139 -5.693,3.196 -10.35,3.196 z"
     id="path60" /><path
     fill="#62b592"
     d="m 254.285,85.8 c -4.633,0 -10.006,-0.654 -14.907,-1.586 -32.128,-6.109 -75.954,-27.776 -93.733,-68.733 -0.33,-0.76 0.019,-1.643 0.779,-1.973 0.76,-0.33 1.643,0.019 1.973,0.779 17.312,39.882 60.133,61.008 91.541,66.98 12.561,2.39 21.033,1.738 22.91,-0.14 0.586,-0.586 1.535,-0.586 2.121,0 0.586,0.585 0.586,1.535 0,2.121 -1.843,1.842 -5.862,2.552 -10.684,2.552 z"
     id="path62" /><path
     fill="#62b592"
     d="m 221.904,99.947 c -6.983,0 -14.394,-0.659 -21.881,-2.028 -17.715,-3.239 -61.029,-15.452 -80.581,-58.801 -0.341,-0.755 -0.005,-1.644 0.75,-1.984 0.755,-0.34 1.644,-0.005 1.984,0.75 18.968,42.054 61.137,53.93 78.386,57.083 24.572,4.491 48.099,1.265 57.212,-7.848 0.586,-0.586 1.535,-0.586 2.121,0 0.586,0.585 0.586,1.536 0,2.121 -6.898,6.899 -21.206,10.707 -37.991,10.707 z"
     id="path64" /><path
     fill="#e1bb7a"
     d="m 101.048,227.455 c -0.35,0.143 -0.641,0.444 -0.738,0.894 -1.416,6.561 -1.9,21.534 4.637,32.142 -1.059,-8.075 -2.53,-19.512 -3.899,-33.036 m 154.613,-0.085 c -1.264,12.548 -2.61,23.312 -3.637,31.267 5.744,-10.437 5.96,-24.139 4.617,-30.322 -0.115,-0.545 -0.526,-0.866 -0.98,-0.945"
     id="path66" /><path
     fill="#62b896"
     d="m 255.438,227.351 c -0.478,0 -0.959,0.263 -1.164,0.809 -0.781,2.071 -1.981,4.636 -3.781,7.061 -2.893,3.904 -7.323,7.455 -13.965,8.047 -0.633,0.05 -1.282,0.082 -1.956,0.082 -5.471,0 -13.087,-6.819 -23.474,-10.105 -6.498,-0.001 -13.474,-0.003 -20.617,-0.006 -0.867,0.305 -1.694,0.638 -2.479,0.988 l -19.874,-0.354 c -0.545,-0.227 -1.109,-0.444 -1.691,-0.649 -7.07,-0.005 -13.984,-0.012 -20.448,-0.02 -10.452,3.271 -18.106,10.145 -23.594,10.145 -1.003,0 -1.957,-0.065 -2.869,-0.188 -7.168,-0.954 -11.622,-5.417 -14.31,-9.814 -1.134,-1.833 -1.948,-3.641 -2.523,-5.187 -0.207,-0.54 -0.682,-0.8 -1.157,-0.8 -0.167,0 -0.334,0.032 -0.489,0.095 1.368,13.524 2.84,24.961 3.899,33.036 1.128,1.83 2.465,3.531 4.042,5.036 5.671,5.416 14.466,9.189 27.822,9.189 13.433,0 23.054,-2.658 29.633,-5.658 -2.187,-3.452 -5.705,-6.935 -7.427,-8.434 -0.624,-0.544 -0.69,-1.492 -0.147,-2.116 0.297,-0.341 0.714,-0.515 1.133,-0.515 0.349,0 0.699,0.121 0.983,0.368 0.732,0.637 5.346,4.74 8.161,9.362 4.813,-2.574 7.541,-5.149 8.645,-6.33 0.16,-0.168 0.374,-0.253 0.587,-0.253 0.213,0 0.424,0.084 0.58,0.253 1.441,1.512 5.61,5.344 13.453,8.513 -2.231,-6.754 -6.451,-12.182 -6.531,-12.283 -0.513,-0.65 -0.403,-1.594 0.247,-2.107 0.275,-0.217 0.603,-0.323 0.929,-0.323 0.443,0 0.882,0.195 1.177,0.569 0.387,0.489 5.669,7.272 7.764,15.452 5.099,1.67 11.446,2.983 19.215,3.379 -1.192,-6.387 -2.949,-11.3 -2.991,-11.413 -0.283,-0.778 0.119,-1.64 0.897,-1.922 0.17,-0.063 0.344,-0.093 0.516,-0.093 0.612,0 1.185,0.381 1.407,0.989 0.18,0.495 2.064,5.765 3.263,12.546 0.606,0.011 1.22,0.017 1.842,0.017 7.117,0 12.947,-1.236 17.701,-3.308 -1.275,-3.24 -2.691,-6.803 -4.138,-10.375 -0.311,-0.768 0.059,-1.643 0.827,-1.954 0.184,-0.074 0.374,-0.109 0.561,-0.109 0.593,0 1.156,0.353 1.392,0.937 1.417,3.497 2.805,6.987 4.059,10.174 2.461,-1.356 4.587,-2.955 6.418,-4.725 2.03,-1.961 3.698,-4.248 5.057,-6.716 1.026,-7.956 2.373,-18.72 3.637,-31.267 -0.072,-0.017 -0.147,-0.023 -0.222,-0.023"
     id="path68" /><path
     fill="#e7e8e3"
     d="m 156.613,231.513 c -3.826,0 -7.361,0.67 -10.623,1.691 6.464,0.008 13.378,0.014 20.448,0.02 -2.874,-1.011 -6.182,-1.711 -9.825,-1.711 m 43.734,0 c -3.658,0 -6.982,0.709 -9.866,1.725 7.143,0.003 14.119,0.005 20.617,0.006 -3.297,-1.043 -6.875,-1.731 -10.751,-1.731"
     id="path70" /><path
     fill="#5caa89"
     d="m 213.637,261.163 c -0.171,0 -0.345,0.03 -0.516,0.093 -0.778,0.282 -1.18,1.144 -0.897,1.922 0.041,0.114 1.799,5.027 2.991,11.413 1.006,0.051 2.037,0.087 3.092,0.107 -1.199,-6.781 -3.083,-12.051 -3.263,-12.546 -0.222,-0.608 -0.796,-0.989 -1.407,-0.989"
     id="path72" /><path
     fill="#5caa89"
     d="m 187.058,255.191 c -0.326,0 -0.654,0.105 -0.929,0.323 -0.649,0.514 -0.76,1.457 -0.247,2.107 0.08,0.101 4.3,5.529 6.531,12.283 1.12,0.452 2.314,0.891 3.586,1.307 -2.096,-8.18 -7.377,-14.963 -7.764,-15.452 -0.295,-0.373 -0.734,-0.568 -1.177,-0.568"
     id="path74" /><path
     fill="#5caa89"
     d="m 160.005,257.992 c -0.419,0 -0.836,0.175 -1.133,0.515 -0.544,0.624 -0.478,1.572 0.147,2.116 1.722,1.499 5.24,4.982 7.427,8.434 0.967,-0.441 1.866,-0.888 2.703,-1.336 -2.815,-4.622 -7.429,-8.726 -8.161,-9.362 -0.284,-0.246 -0.635,-0.367 -0.983,-0.367"
     id="path76" /><path
     fill="#5caa89"
     d="m 235.098,258.968 c -0.187,0 -0.377,0.035 -0.561,0.109 -0.768,0.312 -1.138,1.187 -0.827,1.954 1.447,3.572 2.863,7.135 4.138,10.375 0.942,-0.411 1.842,-0.854 2.701,-1.328 -1.254,-3.187 -2.642,-6.677 -4.059,-10.174 -0.236,-0.583 -0.799,-0.936 -1.392,-0.936"
     id="path78" /><path
     fill="#63ba95"
     d="m 246.218,253.367 c -5.696,5.507 -14.252,9.362 -26.819,9.362 -26.754,0 -38.549,-10.554 -41.187,-13.324 -0.312,-0.337 -0.847,-0.337 -1.167,0 -2.605,2.787 -14.236,13.324 -40.981,13.324 -13.356,0 -22.151,-3.773 -27.822,-9.189 -10.718,-10.225 -10.34,-29.484 -8.68,-37.178 0.263,-1.216 1.939,-1.348 2.383,-0.188 0.576,1.545 1.389,3.354 2.523,5.187 2.688,4.396 7.143,8.86 14.31,9.813 0.912,0.123 1.866,0.189 2.868,0.189 7.2,0 18.132,-11.836 34.217,-11.836 4.381,0 8.277,1.011 11.515,2.358 l 19.874,0.354 c 3.395,-1.512 7.586,-2.712 12.346,-2.712 16.085,0 27.017,11.836 34.225,11.836 0.674,0 1.323,-0.033 1.956,-0.083 6.641,-0.592 11.071,-4.143 13.965,-8.046 1.8,-2.425 3,-4.989 3.781,-7.061 0.436,-1.159 2.112,-1.044 2.367,0.156 1.661,7.644 0.937,26.789 -9.674,37.038 z"
     id="path80" /><path
     fill="#f6f7f2"
     d="m 186.26,209.628 c 1.414,5.477 2.604,10.451 2.604,11.669 0,2.997 -5.244,7.492 -11.238,7.492 -5.994,0 -11.238,-4.495 -11.238,-7.492 0,-1.984 3.161,-13.944 5.296,-21.794"
     id="path82" /><path
     fill="#3f3f3f"
     d="m 280.721,64.675 c 0.249,-0.451 0.496,-0.889 0.746,-1.349 2.25,-4.125 2.167,-8.99 -0.221,-13.012 -2.422,-4.08 -6.692,-6.516 -11.421,-6.517 -0.561,0 -1.13,0.035 -1.693,0.105 -1.373,0.169 -2.672,0.256 -3.865,0.256 -2.486,0 -5.839,-0.388 -7.688,-2.237 -1.344,-1.344 -3.084,-3.393 -5.1,-5.766 C 240.747,23.519 220.77,0 189.707,0 c -17.186,0 -32.399,3.464 -45.22,10.296 -7.894,4.206 -14.898,9.696 -20.936,16.383 -21.611,9.696 -40.147,24.948 -53.928,44.51 -15.714,22.306 -24.02,48.566 -24.02,75.943 v 27.53 c 0,1.104 0.896,2 2,2 1.104,0 2,-0.896 2,-2 v -10.044 h 2.041 c 0.179,9.279 3.42,18.32 9.19,25.538 5.755,7.203 13.813,12.363 22.769,14.604 0.349,0.892 0.853,1.76 1.578,2.492 1.159,1.173 2.694,1.818 4.322,1.818 h 4.894 c 0.145,1.852 0.298,3.713 0.457,5.573 -0.072,0.217 -0.132,0.438 -0.181,0.664 -1.347,6.239 -2.243,20.98 3.716,33.008 0.696,5.68 1.339,10.565 1.86,14.529 0.606,4.613 1.179,8.971 1.19,9.883 0,2.602 1.076,6.745 9.468,15.71 5.284,5.646 12.433,12.043 20.129,18.015 9.092,7.055 31.928,23.463 47.569,23.463 16.546,0 40.38,-17.071 47.292,-22.303 6.9,-5.224 29.413,-23.178 29.413,-34.891 0.011,-0.91 0.584,-5.32 1.191,-9.989 0.737,-5.667 1.741,-13.395 2.781,-22.519 1.882,-6.423 2.667,-14.035 2.121,-20.567 0.326,-3.553 0.628,-7.093 0.902,-10.576 h 3.443 c 1.628,0 3.164,-0.646 4.322,-1.818 0.725,-0.732 1.229,-1.601 1.578,-2.492 8.956,-2.24 17.013,-7.4 22.769,-14.604 5.77,-7.218 9.011,-16.259 9.19,-25.538 h 2.038 v 10.044 c 0,1.104 0.896,2 2,2 1.104,0 2,-0.896 2,-2 v -27.53 C 309.644,117.108 299.401,88.01 280.721,64.675 Z M 86.64,198.696 85.866,198.62 c -7.854,-1.802 -14.936,-6.247 -19.95,-12.524 -5.024,-6.274 -7.791,-14.188 -7.791,-22.282 0,-16.485 11.7,-31.109 27.834,-34.807 l 0.681,-0.07 z m -1.408,-78.738 c -0.834,0.843 -1.383,1.886 -1.74,2.954 -8.86,2.267 -16.843,7.402 -22.578,14.547 -5.529,6.888 -8.758,15.394 -9.222,24.159 h -2.088 v -14.485 c 0,-26.547 8.054,-52.012 23.29,-73.64 11.74,-16.665 27.04,-30.101 44.789,-39.499 -0.699,0.978 -1.386,1.968 -2.05,2.985 -3.08,4.716 -7.742,9.04 -12.251,13.222 -8.192,7.598 -16.663,15.455 -16.663,26.555 0,6.741 1.083,17.547 2.336,30.059 0.372,3.712 0.752,7.508 1.119,11.343 h -0.671 c -1.606,0.001 -3.123,0.64 -4.271,1.8 z m 4.497,82.615 -0.089,-0.22 v -77.336 c 0.041,-0.14 0.084,-0.265 0.129,-0.354 h 4.522 c 0.877,9.886 1.959,24.02 1.523,34.72 0,13.483 0.548,28.01 1.618,43.189 h -7.703 z m 11.135,14.958 c 0.66,1.63 1.439,3.179 2.322,4.615 3.696,6.033 9.018,9.669 15.394,10.515 1.042,0.136 2.044,0.202 3.064,0.202 3.269,0 6.975,-2.022 11.266,-4.365 6.102,-3.33 13.696,-7.475 22.954,-7.475 3.114,0 6.231,0.548 9.279,1.617 0.054,0.188 0.105,0.381 0.186,0.538 0.682,1.578 1.726,2.709 2.858,3.664 1.141,0.949 2.414,1.692 3.76,2.266 2.671,1.159 5.794,1.501 8.665,0.813 2.865,-0.659 5.487,-2.104 7.502,-4.308 0.515,-0.538 0.943,-1.192 1.325,-1.885 0.134,-0.28 0.253,-0.581 0.356,-0.895 3.234,-1.198 6.528,-1.812 9.8,-1.812 9.255,0 16.849,4.144 22.951,7.473 4.295,2.343 8.005,4.367 11.279,4.367 0.68,0 1.359,-0.027 2.093,-0.086 6.125,-0.544 11.182,-3.455 15.031,-8.648 l 0.17,-0.246 0.11,-0.16 c 1.307,-1.828 2.444,-3.897 3.373,-6.185 0.849,4.885 0.711,13.096 -1.592,20.88 l -0.076,0.076 -0.035,0.308 c -1.542,5.043 -3.999,9.882 -7.727,13.484 -6.131,5.937 -14.803,8.947 -25.777,8.947 -25.829,0 -37.218,-9.847 -40.088,-12.859 -0.871,-0.923 -2.481,-0.926 -3.357,0.005 -2.821,3.016 -14.034,12.854 -39.885,12.854 -11.671,0 -20.682,-2.952 -26.784,-8.774 -1.909,-1.822 -3.44,-3.931 -4.662,-6.199 l -0.113,-0.212 c -5.277,-9.989 -4.627,-22.993 -3.642,-28.515 z m 86.285,0.029 0.319,1.931 c 0.057,0.401 0.121,0.838 0.16,1.219 l -0.199,1.354 c -0.065,0.15 -0.125,0.3 -0.213,0.454 -0.295,0.441 -0.622,0.885 -1.041,1.287 -1.635,1.635 -3.901,2.767 -6.187,3.247 -2.297,0.469 -4.686,0.229 -6.871,-0.715 -1.088,-0.46 -2.113,-1.079 -3.015,-1.809 -0.904,-0.717 -1.675,-1.617 -2.054,-2.472 -0.065,-0.108 -0.071,-0.203 -0.107,-0.302 l -0.053,-0.228 c 0.003,-0.116 -0.005,-0.231 -0.029,-0.343 0.004,-0.093 0.012,-0.193 0.028,-0.319 0.076,-0.574 0.188,-1.216 0.31,-1.848 0.243,-1.271 0.521,-2.556 0.81,-3.837 l 3.491,-15.456 c 0.092,-0.421 -0.148,-0.856 -0.567,-0.99 -0.444,-0.142 -0.919,0.104 -1.061,0.548 -1.633,5.044 -3.163,10.113 -4.518,15.257 -0.334,1.288 -0.659,2.579 -0.956,3.898 -0.079,0.347 -0.154,0.694 -0.224,1.051 -3.061,-0.969 -6.184,-1.465 -9.309,-1.465 -10.024,0 -17.99,4.348 -24.391,7.842 -3.931,2.146 -7.326,3.998 -9.829,3.998 -0.889,0 -1.764,-0.058 -2.673,-0.177 -4.461,-0.592 -8.209,-2.73 -11.206,-6.32 -1.8,-25.914 -3.061,-65.665 -3.061,-77.513 0,-12.846 3.442,-36.709 4.923,-46.374 0.193,-1.267 1.288,-2.166 2.589,-2.079 l 4.547,0.27 c 5.2,0.31 12.381,0.737 20.033,1.17 1.214,0.071 2.441,0.14 3.673,0.209 l 2.528,0.143 c 0.654,0.537 1.31,1.07 1.966,1.602 5.114,4.067 10.527,7.798 16.285,10.972 5.748,3.186 11.9,5.707 18.298,7.395 6.393,1.704 13.077,2.435 19.704,2.041 6.627,-0.365 13.174,-1.773 19.384,-4.014 6.205,-2.264 12.099,-5.283 17.617,-8.828 3.673,-2.368 7.167,-4.978 10.544,-7.724 1.559,10.291 4.748,32.863 4.748,45.246 0,12.42 -1.311,50.729 -3.058,76.521 -3.311,4.435 -7.627,6.921 -12.821,7.383 -0.639,0.051 -1.242,0.075 -1.841,0.075 -2.508,0 -5.907,-1.854 -9.842,-4.001 -6.401,-3.492 -14.367,-7.839 -24.388,-7.839 -3.273,0 -6.559,0.548 -9.79,1.624 -0.044,-0.194 -0.09,-0.389 -0.138,-0.589 l -0.509,-1.95 c -0.729,-2.569 -1.517,-5.101 -2.392,-7.61 -0.083,-0.239 -0.332,-0.393 -0.589,-0.347 -0.285,0.051 -0.475,0.323 -0.424,0.608 z m 34.827,84.87 c -17.099,12.943 -33.718,20.983 -43.372,20.983 -9.458,0 -25.751,-8.261 -43.583,-22.098 -16.725,-12.979 -27.077,-24.946 -27.077,-28.593 0,-1.256 -0.474,-4.852 -1.258,-10.808 -0.347,-2.637 -0.749,-5.688 -1.184,-9.104 0.544,0.64 1.111,1.249 1.706,1.816 6.679,6.373 16.387,9.604 28.855,9.604 25.75,0 37.852,-9.57 41.569,-13.283 3.775,3.709 16.03,13.283 41.761,13.283 11.779,0 21.154,-3.295 27.862,-9.791 1.733,-1.674 3.206,-3.557 4.457,-5.569 -0.625,5.104 -1.201,9.543 -1.67,13.148 -0.767,5.897 -1.229,9.458 -1.229,10.702 0.001,5.445 -11.286,17.939 -26.837,29.71 z m 35.958,-143.837 c 0,14.27 -0.607,29.702 -1.806,45.873 -0.213,2.992 -0.458,6.093 -0.747,9.489 -0.157,-0.041 -0.318,-0.07 -0.485,-0.083 -1.212,-0.079 -2.338,0.619 -2.776,1.771 -0.072,0.191 -0.155,0.37 -0.23,0.558 1.542,-25.408 2.654,-58.852 2.654,-70.318 0,-13.07 -3.467,-37.116 -4.955,-46.828 -0.03,-0.212 -0.086,-0.418 -0.141,-0.625 0.786,-0.669 1.576,-1.333 2.348,-2.016 1.204,-1.1 2.434,-2.173 3.616,-3.295 l 3.496,-3.416 c 1.11,-1.062 2.152,-2.203 3.149,-3.381 -0.246,3.081 -0.507,6.295 -0.778,9.616 -0.74,9.067 -1.506,18.443 -2.142,27.621 -1.114,16.149 -1.507,27.629 -1.203,35.034 z m 7.677,-33.569 v 77.325 l -0.091,0.224 h -6.252 c 1.102,-15.471 1.667,-30.264 1.665,-44.041 -0.295,-7.216 0.077,-18.309 1.138,-33.869 h 3.409 c 0.046,0.091 0.09,0.217 0.132,0.359 z m -2.498,-44.489 c -0.069,0.092 -0.123,0.19 -0.167,0.292 -0.299,0.25 -0.503,0.612 -0.536,1.031 v 0.006 c -1.669,2.107 -3.408,4.114 -5.385,5.929 l -3.488,3.314 c -1.178,1.087 -2.401,2.123 -3.598,3.187 -0.98,0.845 -1.978,1.668 -2.979,2.487 -0.149,0.089 -0.283,0.197 -0.389,0.325 -3.832,3.114 -7.812,6.031 -11.967,8.661 -5.377,3.417 -11.082,6.298 -17.041,8.438 -5.963,2.118 -12.197,3.42 -18.485,3.736 -12.614,0.776 -25.2,-2.849 -36.333,-8.918 -5.584,-3.044 -10.874,-6.651 -15.896,-10.607 -5.069,-3.926 -9.57,-8.458 -15.019,-12.111 -0.169,-0.113 -0.398,-0.121 -0.578,0 -0.236,0.16 -0.298,0.48 -0.139,0.717 2.284,3.383 5.094,6.271 8.101,8.953 -0.75,-0.042 -1.502,-0.084 -2.246,-0.128 -7.652,-0.433 -14.83,-0.86 -20.028,-1.17 l -4.542,-0.27 c -2.841,-0.174 -5.308,1.807 -5.738,4.62 -1.49,9.731 -4.957,33.775 -4.957,46.827 0,11.083 1.099,46.491 2.711,72.285 -0.389,-0.806 -0.747,-1.639 -1.068,-2.497 -0.344,-0.906 -1.114,-1.525 -2.025,-1.707 -0.275,-3.181 -0.531,-6.36 -0.751,-9.471 -1.166,-15.878 -1.756,-31.044 -1.758,-45.019 0.342,-8.357 -0.158,-19.643 -1.574,-35.516 -0.016,-0.177 -0.033,-0.354 -0.049,-0.531 l -10e-4,-0.017 C 96.667,117.61 96.093,111.885 95.537,106.344 94.291,93.926 93.214,83.201 93.214,76.752 c 0,-8.262 7.083,-14.831 14.583,-21.786 4.797,-4.449 9.757,-9.049 13.273,-14.433 3.137,-4.803 6.656,-9.097 10.542,-12.889 l 2.193,-2.056 c 14.147,-12.678 32.87,-19.085 55.9,-19.085 28.059,0 46.066,21.197 56.825,33.861 2.106,2.479 3.925,4.62 5.453,6.148 3.493,3.502 9.193,4.795 16.947,3.84 2.611,-0.322 5.038,0.768 6.501,2.918 1.431,2.103 1.553,4.699 0.328,6.945 -0.063,0.116 -0.125,0.224 -0.188,0.339 l -1.256,2.27 c -4.001,7.155 -7.764,13.109 -11.202,17.711 z m 26.23,105.56 c -5.025,6.279 -12.107,10.725 -19.949,12.524 l -0.783,0.077 v -69.761 l 0.679,0.07 c 16.134,3.696 27.834,18.32 27.834,34.807 0,8.091 -2.763,16.005 -7.781,22.283 z m 16.301,-24.477 h -2.085 c -0.464,-8.766 -3.693,-17.271 -9.222,-24.159 -5.735,-7.145 -13.718,-12.279 -22.578,-14.547 -0.357,-1.068 -0.905,-2.111 -1.74,-2.954 -1.078,-1.089 -2.481,-1.719 -3.978,-1.792 0.559,-7.593 1.186,-15.244 1.794,-22.688 0.333,-4.074 0.655,-7.999 0.944,-11.672 3.073,-4.182 6.365,-9.339 9.823,-15.366 17.478,22.409 27.042,50.118 27.042,78.693 z"
     id="path84" /><path
     fill="#3f3f3f"
     d="m 217.722,206.213 c 14.601,0 23.763,-5.932 28.007,-18.133 l 0.039,-0.13 c 1.073,-4.292 2.606,-16.684 -3.107,-22.398 -8.242,-8.242 -41.377,-6.336 -51.805,-3.011 -2.396,0.764 -4.17,2.646 -5.273,5.594 -0.841,2.248 -1.216,4.959 -1.274,7.744 l -4.465,-1.984 c -1.293,-0.576 -2.784,-0.588 -4.089,-0.035 l -3.833,1.625 c -0.085,-2.645 -0.458,-5.208 -1.258,-7.349 -1.103,-2.948 -2.877,-4.83 -5.273,-5.594 -10.428,-3.325 -43.562,-5.232 -51.805,3.011 -5.714,5.714 -4.18,18.106 -3.106,22.399 l 0.039,0.129 c 4.244,12.201 13.405,18.133 28.007,18.133 15.095,0 24.212,-4.407 30.486,-14.737 1.299,-2.138 2.593,-7.318 2.875,-12.718 l 5.04,-2.136 c 0.542,-0.231 1.162,-0.226 1.701,0.014 l 5.446,2.419 c 0.101,0.045 0.205,0.076 0.309,0.098 0.323,5.256 1.588,10.235 2.855,12.321 6.271,10.331 15.389,14.738 30.484,14.738 z m -29.33,-37.026 c 0.764,-2.042 1.9,-3.316 3.375,-3.787 5.171,-1.649 14.668,-2.73 24.014,-2.73 10.683,0 21.168,1.413 24.759,5.003 4.334,4.335 3.451,14.951 2.333,19.486 -1.41,4.052 -5.69,16.054 -25.151,16.054 -13.912,0 -22.262,-3.977 -27.922,-13.295 -1.693,-2.785 -3.872,-14.148 -1.408,-20.731 z m -21.947,20.731 c -5.66,9.318 -14.011,13.295 -27.922,13.295 -19.462,0 -23.741,-12.002 -25.151,-16.054 -1.117,-4.535 -2.001,-15.15 2.333,-19.486 6.733,-6.731 37.691,-5.807 48.773,-2.273 1.475,0.47 2.61,1.745 3.375,3.787 2.463,6.584 0.284,17.946 -1.408,20.731 z"
     id="path86" /></g>
</svg>
