<svg width="251" height="43" viewBox="0 0 251 43" fill="none" xmlns="http://www.w3.org/2000/svg">
<path d="M7.0302 11.5178C7.57943 11.5178 7.90897 11.4082 8.12867 11.0791C8.34836 10.75 8.45821 10.4209 8.45821 10.0918C8.45821 9.87244 8.45821 9.65305 8.34836 9.43366C8.34836 9.32397 8.23851 9.10458 8.12867 8.99489C8.01882 8.88519 7.79913 8.7755 7.68928 8.66581C7.46958 8.66581 7.24989 8.55611 7.0302 8.55611C6.8105 8.55611 6.59081 8.66581 6.37112 8.66581C6.15142 8.7755 6.04158 8.88519 5.93173 8.99489C5.82188 9.10458 5.71204 9.32397 5.60219 9.54336C5.60219 9.76275 5.49234 9.98213 5.49234 10.0918C5.49234 10.5306 5.60219 10.8597 5.82188 11.0791C6.15142 11.4082 6.48096 11.5178 7.0302 11.5178ZM13.9505 32.5791V30.824H8.01882V14.9184H0V16.6735H6.15142V30.824H0V32.5791H13.9505ZM19.333 32.5791V19.0867C19.4429 18.7576 19.5527 18.4286 19.6626 18.0995C19.7724 17.7704 19.9921 17.4413 20.2118 17.2219C20.4315 16.8928 20.7611 16.6735 21.0906 16.5638C21.4201 16.3444 21.9694 16.3444 22.5186 16.3444C23.0678 16.3444 23.3974 16.4541 23.7269 16.5638C24.0565 16.6735 24.2761 16.8928 24.4958 17.2219C24.7155 17.551 24.8254 17.8801 24.9352 18.2092C25.0451 18.5383 25.0451 18.977 25.0451 19.3061V32.6888H26.8026V19.4158V19.3061V19.1964V19.0867C26.9125 18.7576 27.0223 18.4286 27.1322 18.0995C27.242 17.7704 27.4617 17.551 27.6814 17.2219C27.9011 17.0025 28.2306 16.7832 28.5602 16.5638C28.8897 16.4541 29.3291 16.3444 29.8783 16.3444C30.4276 16.3444 30.867 16.4541 31.1965 16.5638C31.526 16.7832 31.7457 17.0025 31.9654 17.2219C32.1851 17.551 32.295 17.8801 32.4048 18.2092C32.5147 18.5383 32.5147 18.977 32.5147 19.3061V32.4694H34.2722V19.3061C34.2722 18.648 34.1624 17.9898 34.0525 17.4413C33.9427 16.8928 33.723 16.3444 33.3934 15.9056C33.0639 15.4668 32.7344 15.1377 32.1851 14.9184C31.6359 14.699 31.0867 14.4796 30.3177 14.4796C29.7685 14.4796 29.3291 14.5893 28.9996 14.699C28.5602 14.8087 28.2306 15.0281 27.9011 15.2474C27.5716 15.4668 27.3519 15.6862 27.1322 16.0153C26.9125 16.2347 26.6928 16.5638 26.5829 16.8928C26.4731 16.5638 26.3632 16.2347 26.1435 16.0153C25.9239 15.7959 25.814 15.4668 25.4845 15.2474C25.1549 15.0281 24.8254 14.8087 24.4958 14.699C24.0565 14.5893 23.6171 14.4796 23.1777 14.4796C22.1891 14.4796 21.4201 14.699 20.8709 15.1377C20.2118 15.5765 19.7724 16.125 19.4429 16.7832L19.333 14.8087H17.5755V32.4694H19.333V32.5791ZM46.2455 32.9082C47.6735 32.9082 48.9917 32.5791 50.0902 32.0306C51.1886 31.4821 52.0674 30.7143 52.7265 29.727L51.5182 28.7398C50.8591 29.5076 50.2 30.1658 49.3212 30.4949C48.4425 30.9337 47.4538 31.1531 46.4652 31.1531C45.5864 31.1531 44.7077 30.9337 43.9387 30.6046C43.1698 30.2755 42.5107 29.727 41.9615 29.0689C41.4123 28.4107 40.9729 27.7525 40.7532 26.9847C40.4236 26.2168 40.3138 25.3393 40.2039 24.352V23.8036H53.1659V22.5969C53.1659 21.5 53.056 20.4031 52.7265 19.4158C52.3969 18.4286 51.9576 17.551 51.4083 16.7832C50.7492 16.0153 50.0902 15.4668 49.2114 15.0281C48.3326 14.5893 47.344 14.3699 46.1357 14.3699C45.0372 14.3699 44.0486 14.5893 43.06 15.0281C42.0713 15.4668 41.3024 16.125 40.6433 16.8928C39.9842 17.6607 39.435 18.648 38.9956 19.7449C38.5562 20.8418 38.4464 22.0485 38.4464 23.2551V23.9133C38.4464 25.1199 38.6661 26.2168 38.9956 27.3138C39.435 28.4107 39.9842 29.2883 40.6433 30.0561C41.3024 30.824 42.1812 31.4821 43.1698 31.9209C43.9387 32.6888 45.0372 32.9082 46.2455 32.9082ZM51.1886 22.2678H40.2039C40.3138 21.3903 40.5335 20.6224 40.863 19.8546C41.1926 19.0867 41.6319 18.5383 42.0713 17.9898C42.5107 17.4413 43.1698 17.0025 43.8289 16.7832C44.488 16.4541 45.147 16.3444 46.0258 16.3444C46.7948 16.3444 47.5637 16.4541 48.2228 16.7832C48.8818 17.1122 49.4311 17.551 49.8705 18.0995C50.3098 18.648 50.6394 19.3061 50.8591 19.9643C51.0788 20.6224 51.1886 21.3903 51.1886 22.0485V22.2678ZM63.1619 32.5791V21.2806C63.3816 20.5127 63.7112 19.7449 64.0407 19.1964C64.4801 18.648 64.9195 18.0995 65.4687 17.7704C66.0179 17.3316 66.677 17.1122 67.3361 16.8928C67.9952 16.6735 68.7641 16.5638 69.6429 16.5638C70.0823 16.5638 70.5217 16.5638 71.0709 16.6735C71.5103 16.6735 71.9497 16.7832 72.3891 16.8928L72.6087 15.0281C72.2792 14.9184 71.8398 14.8087 71.4004 14.8087C70.9611 14.699 70.4118 14.699 69.9724 14.699C68.4346 14.699 67.0066 15.0281 65.9081 15.6862C64.6998 16.3444 63.821 17.3316 63.1619 18.5383V17.7704L63.0521 15.0281H61.1847V32.6888H63.1619V32.5791ZM85.351 32.9082C86.2298 32.9082 87.1085 32.7985 87.9873 32.5791C88.8661 32.3597 89.635 32.0306 90.2941 31.4821C90.8433 31.0434 91.2827 30.6046 91.6123 29.9464C91.9418 29.3979 92.1615 28.6301 92.1615 27.8622C92.1615 27.0944 91.9418 26.3265 91.6123 25.7781C91.2827 25.2296 90.7335 24.6811 90.1842 24.352C89.5252 23.9133 88.8661 23.5842 88.0972 23.3648C87.3282 23.1454 86.4495 22.926 85.5707 22.7066C84.9116 22.5969 84.2525 22.3775 83.5934 22.2678C82.9344 22.0485 82.3851 21.8291 81.9457 21.6097C81.5063 21.3903 81.1768 21.0612 80.9571 20.6224C80.7374 20.2934 80.6276 19.8546 80.6276 19.3061C80.6276 18.7576 80.7374 18.3189 81.067 17.9898C81.2867 17.551 81.726 17.3316 82.0556 17.0025C82.495 16.7832 82.9344 16.5638 83.4836 16.4541C84.0328 16.3444 84.5821 16.2347 85.2411 16.2347C85.9002 16.2347 86.4495 16.3444 86.9987 16.4541C87.5479 16.5638 88.0972 16.8928 88.5365 17.1122C88.9759 17.4413 89.3055 17.7704 89.635 18.2092C89.9646 18.648 90.0744 19.1964 90.0744 19.7449H92.0517C92.0517 18.8673 91.832 18.2092 91.5024 17.551C91.1729 17.0025 90.6236 16.4541 90.0744 16.0153C89.4153 15.5765 88.7562 15.2474 87.9873 15.0281C87.2184 14.8087 86.3396 14.699 85.351 14.699C84.4722 14.699 83.7033 14.8087 82.9344 15.0281C82.1654 15.2474 81.5063 15.5765 80.8473 15.9056C80.1882 16.3444 79.7488 16.8928 79.4193 17.4413C79.0897 17.9898 78.87 18.7576 78.87 19.5255C78.87 20.2934 79.0897 21.0612 79.4193 21.6097C79.7488 22.1582 80.298 22.5969 80.8473 23.0357C81.5063 23.3648 82.1654 23.6939 82.9344 23.9133C83.7033 24.1326 84.4722 24.352 85.351 24.5714C86.0101 24.6811 86.779 24.9005 87.4381 25.1199C88.0972 25.3393 88.6464 25.5587 89.0858 25.8877C89.5252 26.1071 89.8547 26.4362 90.0744 26.875C90.2941 27.3138 90.4039 27.7525 90.4039 28.1913C90.4039 28.6301 90.2941 28.9592 90.1842 29.2883C90.0744 29.6173 89.7449 29.9464 89.4153 30.1658C88.9759 30.4949 88.3169 30.824 87.6578 31.0434C86.9987 31.2627 86.2298 31.3724 85.4608 31.3724C84.9116 31.3724 84.2525 31.2627 83.7033 31.1531C83.154 31.0434 82.495 30.824 82.0556 30.6046C81.5063 30.2755 81.1768 29.9464 80.7374 29.5076C80.4079 29.0689 80.1882 28.4107 80.0783 27.7525H78.2109C78.2109 28.5204 78.4306 29.2883 78.87 29.9464C79.1996 30.6046 79.7488 31.1531 80.4079 31.5918C81.067 32.0306 81.8359 32.3597 82.7147 32.6888C83.4836 32.7985 84.4722 32.9082 85.351 32.9082ZM100.949 11.5178C100.949 11.0791 101.059 10.75 101.279 10.5306C101.498 10.3112 101.718 10.0918 102.048 9.98213C102.267 9.87244 102.487 9.87244 102.707 9.76275C102.926 9.76275 103.146 9.76275 103.476 9.87244C103.805 9.98213 104.025 10.0918 104.354 10.2015C104.684 10.3112 104.904 10.5306 105.233 10.75C105.563 10.9694 105.782 11.0791 106.112 11.2985C106.442 11.4082 106.771 11.5178 107.211 11.5178C107.65 11.5178 108.089 11.4082 108.419 11.2985C108.748 11.0791 109.078 10.8597 109.407 10.5306C109.627 10.2015 109.847 9.87244 110.067 9.43366C110.176 8.99489 110.286 8.55611 110.286 8.11734L109.078 7.89795C109.078 8.11734 108.968 8.44642 108.968 8.66581C108.858 8.88519 108.748 9.10458 108.639 9.32397C108.529 9.54336 108.309 9.65305 108.089 9.76275C107.87 9.87244 107.65 9.87244 107.32 9.87244C106.881 9.87244 106.551 9.76275 106.112 9.54336C105.782 9.32397 105.453 9.10458 105.123 8.88519C104.794 8.66581 104.464 8.44642 104.025 8.22703C103.586 8.00764 103.256 7.89795 102.817 7.89795C102.377 7.89795 101.938 8.00764 101.608 8.11734C101.279 8.33673 100.949 8.55611 100.73 8.88519C100.51 9.21428 100.29 9.54336 100.07 9.98213C99.9606 10.4209 99.8508 10.8597 99.8508 11.2985L100.949 11.5178ZM103.256 32.9082C103.915 32.9082 104.464 32.7985 105.123 32.6888C105.673 32.5791 106.332 32.3597 106.771 32.1403C107.32 31.9209 107.76 31.5918 108.199 31.2627C108.639 30.9337 109.078 30.4949 109.407 30.0561C109.407 30.4949 109.517 30.9337 109.517 31.3724C109.627 31.8112 109.627 32.25 109.737 32.5791H111.824V32.3597C111.714 31.8112 111.495 31.2627 111.495 30.6046C111.385 29.9464 111.385 29.3979 111.275 28.8495V20.2934C111.275 19.3061 111.055 18.5383 110.726 17.7704C110.396 17.0025 109.957 16.4541 109.298 15.9056C108.748 15.4668 107.979 15.0281 107.211 14.8087C106.442 14.5893 105.563 14.4796 104.684 14.4796C103.805 14.4796 102.926 14.5893 102.048 14.9184C101.279 15.1377 100.51 15.5765 99.9606 16.0153C99.3015 16.4541 98.8621 17.0025 98.5326 17.6607C98.2031 18.3189 97.9834 18.977 97.9834 19.7449H99.8508C99.8508 19.1964 100.07 18.648 100.29 18.2092C100.51 17.7704 100.949 17.4413 101.389 17.1122C101.828 16.7832 102.267 16.5638 102.926 16.4541C103.586 16.3444 104.135 16.2347 104.684 16.2347C105.343 16.2347 106.002 16.3444 106.551 16.4541C107.101 16.6735 107.65 16.8928 108.089 17.2219C108.529 17.551 108.858 17.9898 109.078 18.5383C109.298 19.0867 109.407 19.6352 109.407 20.2934V22.2678H105.673C104.574 22.2678 103.586 22.3775 102.597 22.5969C101.608 22.8163 100.73 23.1454 100.07 23.5842C99.3015 24.023 98.7523 24.5714 98.3129 25.3393C97.8735 26.1071 97.6538 26.875 97.6538 27.9719C97.6538 28.7398 97.7637 29.398 98.0932 30.0561C98.4228 30.7143 98.7523 31.1531 99.3015 31.5918C99.8508 32.0306 100.4 32.3597 101.169 32.5791C101.718 32.7985 102.487 32.9082 103.256 32.9082ZM103.476 31.1531C102.926 31.1531 102.377 31.0434 101.938 30.9337C101.498 30.824 101.059 30.4949 100.62 30.2755C100.29 29.9464 99.9606 29.6173 99.7409 29.1786C99.5212 28.7398 99.4114 28.301 99.4114 27.7525C99.4114 27.0944 99.5212 26.5459 99.8508 26.1071C100.18 25.6684 100.51 25.2296 101.059 24.9005C101.608 24.4617 102.377 24.2423 103.256 24.1326C104.135 24.023 105.014 23.9133 106.002 23.9133H109.517V27.7525C109.298 28.301 108.968 28.7398 108.529 29.1786C108.089 29.6173 107.65 29.9464 107.211 30.2755C106.661 30.6046 106.112 30.824 105.563 30.9337C104.794 31.1531 104.135 31.1531 103.476 31.1531ZM124.347 32.9082C125.555 32.9082 126.653 32.6888 127.642 32.1403C128.631 31.7015 129.4 31.0434 130.059 30.1658C130.718 29.3979 131.157 28.4107 131.597 27.3138C131.926 26.2168 132.146 25.1199 132.146 23.9133V23.3648C132.146 22.1582 131.926 21.0612 131.597 19.9643C131.267 18.8673 130.718 17.9898 130.059 17.1122C129.4 16.3444 128.631 15.6862 127.642 15.1377C126.653 14.699 125.555 14.4796 124.347 14.4796C123.138 14.4796 122.04 14.699 121.051 15.2474C120.063 15.6862 119.294 16.3444 118.635 17.2219C117.975 17.9898 117.426 18.977 117.097 20.074C116.767 21.1709 116.547 22.2678 116.547 23.4745V24.0229C116.547 25.2296 116.767 26.3265 117.097 27.4235C117.426 28.5204 117.975 29.398 118.635 30.2755C119.294 31.0434 120.063 31.7015 121.051 32.25C122.04 32.6888 123.138 32.9082 124.347 32.9082ZM124.347 31.2627C123.358 31.2627 122.589 31.0434 121.82 30.6046C121.051 30.1658 120.502 29.6173 120.063 28.9592C119.513 28.301 119.184 27.5332 118.964 26.6556C118.744 25.7781 118.635 24.9005 118.525 23.9133V23.3648C118.525 22.4872 118.635 21.5 118.964 20.6224C119.184 19.7449 119.623 18.977 120.063 18.3189C120.502 17.6607 121.161 17.1122 121.82 16.6735C122.589 16.2347 123.358 16.0153 124.347 16.0153C125.335 16.0153 126.104 16.2347 126.873 16.6735C127.642 17.1122 128.191 17.6607 128.74 18.3189C129.18 18.977 129.619 19.7449 129.839 20.6224C130.059 21.5 130.278 22.3775 130.278 23.3648V23.9133C130.278 24.9005 130.168 25.7781 129.839 26.6556C129.509 27.5332 129.18 28.301 128.74 28.9592C128.191 29.6173 127.642 30.1658 126.873 30.6046C126.104 31.0434 125.225 31.2627 124.347 31.2627Z" fill="#353535"/>
<path d="M7.0302 11.5178C7.57943 11.5178 7.90897 11.4082 8.12867 11.0791C8.34836 10.75 8.45821 10.4209 8.45821 10.0918C8.45821 9.87244 8.45821 9.65305 8.34836 9.43366C8.34836 9.32397 8.23851 9.10458 8.12867 8.99489C8.01882 8.88519 7.79913 8.7755 7.68928 8.66581C7.46958 8.66581 7.24989 8.55611 7.0302 8.55611C6.8105 8.55611 6.59081 8.66581 6.37112 8.66581C6.15142 8.7755 6.04158 8.88519 5.93173 8.99489C5.82188 9.10458 5.71204 9.32397 5.60219 9.54336C5.60219 9.76275 5.49234 9.98213 5.49234 10.0918C5.49234 10.5306 5.60219 10.8597 5.82188 11.0791C6.15142 11.4082 6.48096 11.5178 7.0302 11.5178ZM13.9505 32.5791V30.824H8.01882V14.9184H0V16.6735H6.15142V30.824H0V32.5791H13.9505ZM19.333 32.5791V19.0867C19.4429 18.7576 19.5527 18.4286 19.6626 18.0995C19.7724 17.7704 19.9921 17.4413 20.2118 17.2219C20.4315 16.8928 20.7611 16.6735 21.0906 16.5638C21.4201 16.3444 21.9694 16.3444 22.5186 16.3444C23.0678 16.3444 23.3974 16.4541 23.7269 16.5638C24.0565 16.6735 24.2761 16.8928 24.4958 17.2219C24.7155 17.551 24.8254 17.8801 24.9352 18.2092C25.0451 18.5383 25.0451 18.977 25.0451 19.3061V32.6888H26.8026V19.4158V19.3061V19.1964V19.0867C26.9125 18.7576 27.0223 18.4286 27.1322 18.0995C27.242 17.7704 27.4617 17.551 27.6814 17.2219C27.9011 17.0025 28.2306 16.7832 28.5602 16.5638C28.8897 16.4541 29.3291 16.3444 29.8783 16.3444C30.4276 16.3444 30.867 16.4541 31.1965 16.5638C31.526 16.7832 31.7457 17.0025 31.9654 17.2219C32.1851 17.551 32.295 17.8801 32.4048 18.2092C32.5147 18.5383 32.5147 18.977 32.5147 19.3061V32.4694H34.2722V19.3061C34.2722 18.648 34.1624 17.9898 34.0525 17.4413C33.9427 16.8928 33.723 16.3444 33.3934 15.9056C33.0639 15.4668 32.7344 15.1377 32.1851 14.9184C31.6359 14.699 31.0867 14.4796 30.3177 14.4796C29.7685 14.4796 29.3291 14.5893 28.9996 14.699C28.5602 14.8087 28.2306 15.0281 27.9011 15.2474C27.5716 15.4668 27.3519 15.6862 27.1322 16.0153C26.9125 16.2347 26.6928 16.5638 26.5829 16.8928C26.4731 16.5638 26.3632 16.2347 26.1435 16.0153C25.9239 15.7959 25.814 15.4668 25.4845 15.2474C25.1549 15.0281 24.8254 14.8087 24.4958 14.699C24.0565 14.5893 23.6171 14.4796 23.1777 14.4796C22.1891 14.4796 21.4201 14.699 20.8709 15.1377C20.2118 15.5765 19.7724 16.125 19.4429 16.7832L19.333 14.8087H17.5755V32.4694H19.333V32.5791ZM46.2455 32.9082C47.6735 32.9082 48.9917 32.5791 50.0902 32.0306C51.1886 31.4821 52.0674 30.7143 52.7265 29.727L51.5182 28.7398C50.8591 29.5076 50.2 30.1658 49.3212 30.4949C48.4425 30.9337 47.4538 31.1531 46.4652 31.1531C45.5864 31.1531 44.7077 30.9337 43.9387 30.6046C43.1698 30.2755 42.5107 29.727 41.9615 29.0689C41.4123 28.4107 40.9729 27.7525 40.7532 26.9847C40.4236 26.2168 40.3138 25.3393 40.2039 24.352V23.8036H53.1659V22.5969C53.1659 21.5 53.056 20.4031 52.7265 19.4158C52.3969 18.4286 51.9576 17.551 51.4083 16.7832C50.7492 16.0153 50.0902 15.4668 49.2114 15.0281C48.3326 14.5893 47.344 14.3699 46.1357 14.3699C45.0372 14.3699 44.0486 14.5893 43.06 15.0281C42.0713 15.4668 41.3024 16.125 40.6433 16.8928C39.9842 17.6607 39.435 18.648 38.9956 19.7449C38.5562 20.8418 38.4464 22.0485 38.4464 23.2551V23.9133C38.4464 25.1199 38.6661 26.2168 38.9956 27.3138C39.435 28.4107 39.9842 29.2883 40.6433 30.0561C41.3024 30.824 42.1812 31.4821 43.1698 31.9209C43.9387 32.6888 45.0372 32.9082 46.2455 32.9082ZM51.1886 22.2678H40.2039C40.3138 21.3903 40.5335 20.6224 40.863 19.8546C41.1926 19.0867 41.6319 18.5383 42.0713 17.9898C42.5107 17.4413 43.1698 17.0025 43.8289 16.7832C44.488 16.4541 45.147 16.3444 46.0258 16.3444C46.7948 16.3444 47.5637 16.4541 48.2228 16.7832C48.8818 17.1122 49.4311 17.551 49.8705 18.0995C50.3098 18.648 50.6394 19.3061 50.8591 19.9643C51.0788 20.6224 51.1886 21.3903 51.1886 22.0485V22.2678ZM63.1619 32.5791V21.2806C63.3816 20.5127 63.7112 19.7449 64.0407 19.1964C64.4801 18.648 64.9195 18.0995 65.4687 17.7704C66.0179 17.3316 66.677 17.1122 67.3361 16.8928C67.9952 16.6735 68.7641 16.5638 69.6429 16.5638C70.0823 16.5638 70.5217 16.5638 71.0709 16.6735C71.5103 16.6735 71.9497 16.7832 72.3891 16.8928L72.6087 15.0281C72.2792 14.9184 71.8398 14.8087 71.4004 14.8087C70.9611 14.699 70.4118 14.699 69.9724 14.699C68.4346 14.699 67.0066 15.0281 65.9081 15.6862C64.6998 16.3444 63.821 17.3316 63.1619 18.5383V17.7704L63.0521 15.0281H61.1847V32.6888H63.1619V32.5791ZM85.351 32.9082C86.2298 32.9082 87.1085 32.7985 87.9873 32.5791C88.8661 32.3597 89.635 32.0306 90.2941 31.4821C90.8433 31.0434 91.2827 30.6046 91.6123 29.9464C91.9418 29.3979 92.1615 28.6301 92.1615 27.8622C92.1615 27.0944 91.9418 26.3265 91.6123 25.7781C91.2827 25.2296 90.7335 24.6811 90.1842 24.352C89.5252 23.9133 88.8661 23.5842 88.0972 23.3648C87.3282 23.1454 86.4495 22.926 85.5707 22.7066C84.9116 22.5969 84.2525 22.3775 83.5934 22.2678C82.9344 22.0485 82.3851 21.8291 81.9457 21.6097C81.5063 21.3903 81.1768 21.0612 80.9571 20.6224C80.7374 20.2934 80.6276 19.8546 80.6276 19.3061C80.6276 18.7576 80.7374 18.3189 81.067 17.9898C81.2867 17.551 81.726 17.3316 82.0556 17.0025C82.495 16.7832 82.9344 16.5638 83.4836 16.4541C84.0328 16.3444 84.5821 16.2347 85.2411 16.2347C85.9002 16.2347 86.4495 16.3444 86.9987 16.4541C87.5479 16.5638 88.0972 16.8928 88.5365 17.1122C88.9759 17.4413 89.3055 17.7704 89.635 18.2092C89.9646 18.648 90.0744 19.1964 90.0744 19.7449H92.0517C92.0517 18.8673 91.832 18.2092 91.5024 17.551C91.1729 17.0025 90.6236 16.4541 90.0744 16.0153C89.4153 15.5765 88.7562 15.2474 87.9873 15.0281C87.2184 14.8087 86.3396 14.699 85.351 14.699C84.4722 14.699 83.7033 14.8087 82.9344 15.0281C82.1654 15.2474 81.5063 15.5765 80.8473 15.9056C80.1882 16.3444 79.7488 16.8928 79.4193 17.4413C79.0897 17.9898 78.87 18.7576 78.87 19.5255C78.87 20.2934 79.0897 21.0612 79.4193 21.6097C79.7488 22.1582 80.298 22.5969 80.8473 23.0357C81.5063 23.3648 82.1654 23.6939 82.9344 23.9133C83.7033 24.1326 84.4722 24.352 85.351 24.5714C86.0101 24.6811 86.779 24.9005 87.4381 25.1199C88.0972 25.3393 88.6464 25.5587 89.0858 25.8877C89.5252 26.1071 89.8547 26.4362 90.0744 26.875C90.2941 27.3138 90.4039 27.7525 90.4039 28.1913C90.4039 28.6301 90.2941 28.9592 90.1842 29.2883C90.0744 29.6173 89.7449 29.9464 89.4153 30.1658C88.9759 30.4949 88.3169 30.824 87.6578 31.0434C86.9987 31.2627 86.2298 31.3724 85.4608 31.3724C84.9116 31.3724 84.2525 31.2627 83.7033 31.1531C83.154 31.0434 82.495 30.824 82.0556 30.6046C81.5063 30.2755 81.1768 29.9464 80.7374 29.5076C80.4079 29.0689 80.1882 28.4107 80.0783 27.7525H78.2109C78.2109 28.5204 78.4306 29.2883 78.87 29.9464C79.1996 30.6046 79.7488 31.1531 80.4079 31.5918C81.067 32.0306 81.8359 32.3597 82.7147 32.6888C83.4836 32.7985 84.4722 32.9082 85.351 32.9082ZM100.949 11.5178C100.949 11.0791 101.059 10.75 101.279 10.5306C101.498 10.3112 101.718 10.0918 102.048 9.98213C102.267 9.87244 102.487 9.87244 102.707 9.76275C102.926 9.76275 103.146 9.76275 103.476 9.87244C103.805 9.98213 104.025 10.0918 104.354 10.2015C104.684 10.3112 104.904 10.5306 105.233 10.75C105.563 10.9694 105.782 11.0791 106.112 11.2985C106.442 11.4082 106.771 11.5178 107.211 11.5178C107.65 11.5178 108.089 11.4082 108.419 11.2985C108.748 11.0791 109.078 10.8597 109.407 10.5306C109.627 10.2015 109.847 9.87244 110.067 9.43366C110.176 8.99489 110.286 8.55611 110.286 8.11734L109.078 7.89795C109.078 8.11734 108.968 8.44642 108.968 8.66581C108.858 8.88519 108.748 9.10458 108.639 9.32397C108.529 9.54336 108.309 9.65305 108.089 9.76275C107.87 9.87244 107.65 9.87244 107.32 9.87244C106.881 9.87244 106.551 9.76275 106.112 9.54336C105.782 9.32397 105.453 9.10458 105.123 8.88519C104.794 8.66581 104.464 8.44642 104.025 8.22703C103.586 8.00764 103.256 7.89795 102.817 7.89795C102.377 7.89795 101.938 8.00764 101.608 8.11734C101.279 8.33673 100.949 8.55611 100.73 8.88519C100.51 9.21428 100.29 9.54336 100.07 9.98213C99.9606 10.4209 99.8508 10.8597 99.8508 11.2985L100.949 11.5178ZM103.256 32.9082C103.915 32.9082 104.464 32.7985 105.123 32.6888C105.673 32.5791 106.332 32.3597 106.771 32.1403C107.32 31.9209 107.76 31.5918 108.199 31.2627C108.639 30.9337 109.078 30.4949 109.407 30.0561C109.407 30.4949 109.517 30.9337 109.517 31.3724C109.627 31.8112 109.627 32.25 109.737 32.5791H111.824V32.3597C111.714 31.8112 111.495 31.2627 111.495 30.6046C111.385 29.9464 111.385 29.3979 111.275 28.8495V20.2934C111.275 19.3061 111.055 18.5383 110.726 17.7704C110.396 17.0025 109.957 16.4541 109.298 15.9056C108.748 15.4668 107.979 15.0281 107.211 14.8087C106.442 14.5893 105.563 14.4796 104.684 14.4796C103.805 14.4796 102.926 14.5893 102.048 14.9184C101.279 15.1377 100.51 15.5765 99.9606 16.0153C99.3015 16.4541 98.8621 17.0025 98.5326 17.6607C98.2031 18.3189 97.9834 18.977 97.9834 19.7449H99.8508C99.8508 19.1964 100.07 18.648 100.29 18.2092C100.51 17.7704 100.949 17.4413 101.389 17.1122C101.828 16.7832 102.267 16.5638 102.926 16.4541C103.586 16.3444 104.135 16.2347 104.684 16.2347C105.343 16.2347 106.002 16.3444 106.551 16.4541C107.101 16.6735 107.65 16.8928 108.089 17.2219C108.529 17.551 108.858 17.9898 109.078 18.5383C109.298 19.0867 109.407 19.6352 109.407 20.2934V22.2678H105.673C104.574 22.2678 103.586 22.3775 102.597 22.5969C101.608 22.8163 100.73 23.1454 100.07 23.5842C99.3015 24.023 98.7523 24.5714 98.3129 25.3393C97.8735 26.1071 97.6538 26.875 97.6538 27.9719C97.6538 28.7398 97.7637 29.398 98.0932 30.0561C98.4228 30.7143 98.7523 31.1531 99.3015 31.5918C99.8508 32.0306 100.4 32.3597 101.169 32.5791C101.718 32.7985 102.487 32.9082 103.256 32.9082ZM103.476 31.1531C102.926 31.1531 102.377 31.0434 101.938 30.9337C101.498 30.824 101.059 30.4949 100.62 30.2755C100.29 29.9464 99.9606 29.6173 99.7409 29.1786C99.5212 28.7398 99.4114 28.301 99.4114 27.7525C99.4114 27.0944 99.5212 26.5459 99.8508 26.1071C100.18 25.6684 100.51 25.2296 101.059 24.9005C101.608 24.4617 102.377 24.2423 103.256 24.1326C104.135 24.023 105.014 23.9133 106.002 23.9133H109.517V27.7525C109.298 28.301 108.968 28.7398 108.529 29.1786C108.089 29.6173 107.65 29.9464 107.211 30.2755C106.661 30.6046 106.112 30.824 105.563 30.9337C104.794 31.1531 104.135 31.1531 103.476 31.1531ZM124.347 32.9082C125.555 32.9082 126.653 32.6888 127.642 32.1403C128.631 31.7015 129.4 31.0434 130.059 30.1658C130.718 29.3979 131.157 28.4107 131.597 27.3138C131.926 26.2168 132.146 25.1199 132.146 23.9133V23.3648C132.146 22.1582 131.926 21.0612 131.597 19.9643C131.267 18.8673 130.718 17.9898 130.059 17.1122C129.4 16.3444 128.631 15.6862 127.642 15.1377C126.653 14.699 125.555 14.4796 124.347 14.4796C123.138 14.4796 122.04 14.699 121.051 15.2474C120.063 15.6862 119.294 16.3444 118.635 17.2219C117.975 17.9898 117.426 18.977 117.097 20.074C116.767 21.1709 116.547 22.2678 116.547 23.4745V24.0229C116.547 25.2296 116.767 26.3265 117.097 27.4235C117.426 28.5204 117.975 29.398 118.635 30.2755C119.294 31.0434 120.063 31.7015 121.051 32.25C122.04 32.6888 123.138 32.9082 124.347 32.9082ZM124.347 31.2627C123.358 31.2627 122.589 31.0434 121.82 30.6046C121.051 30.1658 120.502 29.6173 120.063 28.9592C119.513 28.301 119.184 27.5332 118.964 26.6556C118.744 25.7781 118.635 24.9005 118.525 23.9133V23.3648C118.525 22.4872 118.635 21.5 118.964 20.6224C119.184 19.7449 119.623 18.977 120.063 18.3189C120.502 17.6607 121.161 17.1122 121.82 16.6735C122.589 16.2347 123.358 16.0153 124.347 16.0153C125.335 16.0153 126.104 16.2347 126.873 16.6735C127.642 17.1122 128.191 17.6607 128.74 18.3189C129.18 18.977 129.619 19.7449 129.839 20.6224C130.059 21.5 130.278 22.3775 130.278 23.3648V23.9133C130.278 24.9005 130.168 25.7781 129.839 26.6556C129.509 27.5332 129.18 28.301 128.74 28.9592C128.191 29.6173 127.642 30.1658 126.873 30.6046C126.104 31.0434 125.225 31.2627 124.347 31.2627Z" fill="white"/>
<path d="M251 0H140.055V43H251V0Z" fill="white"/>
<path d="M159.168 19.0867C158.509 18.977 157.96 18.977 157.52 18.977C155.763 18.977 154.554 19.6352 154.005 20.8418V32.3597H149.282V14.699H153.785L153.895 16.7831C154.884 15.1377 156.202 14.3699 157.85 14.3699C158.399 14.3699 158.838 14.4796 159.278 14.5893L159.168 19.0867Z" fill="url(#paint0_linear)"/>
<path d="M169.274 32.6888C166.638 32.6888 164.551 31.9209 162.903 30.2755C161.255 28.7398 160.486 26.5459 160.486 23.9133V23.4745C160.486 21.7194 160.816 20.074 161.475 18.7577C162.134 17.3317 163.123 16.2347 164.441 15.5766C165.649 14.8087 167.187 14.4796 168.725 14.4796C171.141 14.4796 173.009 15.2475 174.437 16.7832C175.865 18.3189 176.524 20.5128 176.524 23.2551V25.2296H165.32C165.429 26.4362 165.979 27.3138 166.748 27.972C167.517 28.6301 168.505 29.0689 169.713 29.0689C171.581 29.0689 172.899 28.4107 173.997 27.0944L176.304 29.7271C175.645 30.7143 174.657 31.4822 173.448 32.0306C172.13 32.3597 170.702 32.6888 169.274 32.6888ZM168.725 18.2092C167.736 18.2092 167.077 18.5383 166.418 19.1965C165.759 19.8546 165.429 20.7322 165.32 21.9388H171.91V21.6097C171.91 20.5128 171.581 19.7449 171.032 19.1965C170.482 18.4286 169.713 18.2092 168.725 18.2092Z" fill="url(#paint1_linear)"/>
<path d="M189.486 32.3597C189.266 31.9209 189.156 31.3725 189.046 30.824C187.948 32.1403 186.41 32.6888 184.543 32.6888C182.785 32.6888 181.357 32.1403 180.259 31.1531C179.16 30.1658 178.501 28.8495 178.501 27.3138C178.501 25.449 179.16 24.023 180.588 23.0357C182.016 22.0485 183.993 21.5 186.63 21.5H188.827V20.5128C188.827 19.7449 188.607 19.0867 188.168 18.5383C187.728 18.0995 187.069 17.7704 186.19 17.7704C185.421 17.7704 184.762 17.9898 184.323 18.3189C183.883 18.648 183.664 19.1964 183.664 19.8546H178.94C178.94 18.8674 179.27 17.8801 179.929 17.0026C180.588 16.125 181.467 15.4668 182.565 14.9184C183.774 14.3699 184.982 14.1505 186.41 14.1505C188.607 14.1505 190.364 14.699 191.573 15.7959C192.891 16.8929 193.44 18.4286 193.44 20.4031V28.0816C193.44 29.727 193.66 31.0434 194.099 31.9209V32.25H189.486V32.3597ZM185.531 29.0689C186.19 29.0689 186.849 28.9592 187.508 28.6301C188.058 28.301 188.497 27.8622 188.827 27.4235V24.352H187.069C184.652 24.352 183.444 25.1199 183.334 26.7653V27.0944C183.334 27.6429 183.554 28.1913 183.993 28.5204C184.323 28.8495 184.872 29.0689 185.531 29.0689Z" fill="url(#paint2_linear)"/>
<path d="M204.535 28.8495C205.414 28.8495 206.073 28.6301 206.622 28.0816C207.171 27.6428 207.501 26.9847 207.501 26.2168H211.895C211.895 27.4234 211.565 28.5204 210.906 29.5076C210.247 30.4949 209.368 31.2627 208.27 31.8112C207.171 32.3597 205.963 32.6887 204.535 32.6887C202.008 32.6887 200.031 31.9209 198.603 30.2755C197.175 28.6301 196.406 26.4362 196.406 23.5842V23.2551C196.406 20.5127 197.175 18.3189 198.603 16.7831C200.031 15.1377 202.008 14.3699 204.535 14.3699C206.732 14.3699 208.489 15.028 209.808 16.2347C211.126 17.4413 211.785 19.1964 211.895 21.2806H207.501C207.501 20.403 207.171 19.6352 206.622 19.0867C206.073 18.5382 205.304 18.2092 204.425 18.2092C203.327 18.2092 202.448 18.6479 201.899 19.4158C201.349 20.1836 201.02 21.5 201.02 23.3648V23.8035C201.02 25.6683 201.349 26.9847 201.899 27.7525C202.558 28.4107 203.327 28.8495 204.535 28.8495Z" fill="url(#paint3_linear)"/>
<path d="M220.243 10.3112V14.699H223.318V18.2092H220.243V26.9847C220.243 27.6429 220.352 28.0816 220.572 28.4107C220.792 28.7398 221.341 28.8495 222 28.8495C222.549 28.8495 222.989 28.8495 223.428 28.7398V32.3597C222.549 32.6888 221.561 32.7985 220.572 32.7985C217.277 32.7985 215.519 31.1531 215.519 27.7525V18.2092H212.993V14.699H215.519V10.3112H220.243Z" fill="url(#paint4_linear)"/>
<path d="M241.883 28.8495H228.262V32.1403H241.883V28.8495Z" fill="url(#paint5_linear)"/>
<defs>
<linearGradient id="paint0_linear" x1="138.454" y1="7.69061" x2="218.255" y2="87.6032" gradientUnits="userSpaceOnUse">
<stop stop-color="#49CEF7"/>
<stop offset="0.9992" stop-color="#081D29"/>
</linearGradient>
<linearGradient id="paint1_linear" x1="145.681" y1="0.473354" x2="225.483" y2="80.3858" gradientUnits="userSpaceOnUse">
<stop stop-color="#49CEF7"/>
<stop offset="0.9992" stop-color="#081D29"/>
</linearGradient>
<linearGradient id="paint2_linear" x1="154.23" y1="-8.06404" x2="234.032" y2="71.8485" gradientUnits="userSpaceOnUse">
<stop stop-color="#49CEF7"/>
<stop offset="0.9992" stop-color="#081D29"/>
</linearGradient>
<linearGradient id="paint3_linear" x1="163.555" y1="-17.3756" x2="243.356" y2="62.537" gradientUnits="userSpaceOnUse">
<stop stop-color="#49CEF7"/>
<stop offset="0.9992" stop-color="#081D29"/>
</linearGradient>
<linearGradient id="paint4_linear" x1="171.9" y1="-25.7089" x2="251.701" y2="54.2038" gradientUnits="userSpaceOnUse">
<stop stop-color="#49CEF7"/>
<stop offset="0.9992" stop-color="#081D29"/>
</linearGradient>
<linearGradient id="paint5_linear" x1="187.574" y1="30.5097" x2="250.594" y2="30.5097" gradientUnits="userSpaceOnUse">
<stop stop-color="#49CEF7"/>
<stop offset="0.9992" stop-color="#081D29"/>
</linearGradient>
</defs>
</svg>